<?xml version="1.0" encoding="iso-8859-1"?>
<!-- Generator: Adobe Illustrator 17.1.0, SVG Export Plug-In . SVG Version: 6.00 Build 0)  -->
<!DOCTYPE svg PUBLIC "-//W3C//DTD SVG 1.1//EN" "http://www.w3.org/Graphics/SVG/1.1/DTD/svg11.dtd">
<svg version="1.1" id="Capa_1" xmlns="http://www.w3.org/2000/svg" xmlns:xlink="http://www.w3.org/1999/xlink" x="0px" y="0px"
	 viewBox="0 0 287.639 287.639" style="enable-background:new 0 0 287.639 287.639;" xml:space="preserve">
<g>
	<path d="M102.543,43.003C112.344,35.226,128.788,30,143.462,30c14.81,0,31.376,5.321,41.225,13.241
		c2.771,2.229,6.092,3.312,9.391,3.312c4.387,0,8.736-1.916,11.699-5.601c5.191-6.456,4.166-15.898-2.289-21.09
		C188.252,7.611,165.252,0,143.462,0c-21.583,0-44.407,7.473-59.567,19.503c-6.489,5.149-7.575,14.585-2.426,21.074
		C86.617,47.065,96.053,48.152,102.543,43.003z"/>
	<path d="M143.535,56.573c-11.488,0-29.271,3.466-41.581,13.232c-6.49,5.149-7.576,14.585-2.428,21.074
		c5.15,6.49,14.584,7.576,21.074,2.428c4.759-3.776,14.833-6.734,22.935-6.734c8.169,0,18.311,3.012,23.09,6.856
		c2.771,2.229,6.093,3.313,9.393,3.313c4.386,0,8.734-1.915,11.697-5.599c5.192-6.455,4.17-15.896-2.285-21.09
		C175.25,61.865,158.806,56.573,143.535,56.573z"/>
	<path d="M269.319,121.639c0-5.523-4.477-10-10-10h-231c-5.523,0-10,4.477-10,10v52c0,5.523,4.477,10,10,10h231
		c5.523,0,10-4.477,10-10V121.639z M225.434,164.877c-9.081,0-16.442-7.362-16.442-16.442c0-9.081,7.362-16.443,16.442-16.443
		s16.443,7.362,16.443,16.443C241.877,157.515,234.515,164.877,225.434,164.877z"/>
	<path d="M269.319,225.639c0-5.523-4.477-10-10-10h-231c-5.523,0-10,4.477-10,10v52c0,5.523,4.477,10,10,10h231
		c5.523,0,10-4.477,10-10V225.639z M225.434,269.22c-9.081,0-16.442-7.362-16.442-16.443c0-9.081,7.362-16.442,16.442-16.442
		s16.443,7.362,16.443,16.442C241.877,261.859,234.515,269.22,225.434,269.22z"/>
</g>
<g>
</g>
<g>
</g>
<g>
</g>
<g>
</g>
<g>
</g>
<g>
</g>
<g>
</g>
<g>
</g>
<g>
</g>
<g>
</g>
<g>
</g>
<g>
</g>
<g>
</g>
<g>
</g>
<g>
</g>
</svg>
